# xmcd
#
# Track frame offsets:
#	150
#	19652
#	50149
#	72044
#	98215
#	119327
#	137159
#	164571
#	182460
#	205403
#	228005
#	249989
#	263249
#	278977
#
# Disc length: 4021 seconds
#
# Revision: 0
# Processed by: cddbd v1.5.1PL0 Copyright (c) Steve Scherf et al.
# Submitted via: EasyCDDAExtractor 5.0.2.1
#
DISCID=c60fb30e
DTITLE=Various Artist - ¥x«È·nºu¦Ê¸UÅåÀI¿è
DYEAR=2005
DGENRE=Acid Jazz
TTITLE0=³¯ª@ - ¹ªÁn­YÅT
TTITLE1=³¯ª@ - Åw»Eºq
TTITLE2=³¯ª@ - ¤@¨Õ¸U
TTITLE3=³¯ª@ - ¦h±¡¥S
TTITLE4=³¯ª@ - ²îªø­n§ì¨g
TTITLE5=³¯ª@ - µ¥µL­­®É§å
TTITLE6=ªL±j - ¦V«e¨«
TTITLE7=ªL±j - ¬K­·¤Ö¦~¥S
TTITLE8=ªL±j - ¬d¬Y¤H
TTITLE9=ªL±j - ¶Â½ü§B¥J
TTITLE10=ªL±j - ·R±¡¬ã¨s°|
TTITLE11=½ÞÀY¥Ö - §Ú¬O¯«¸g¯f
TTITLE12=½ÞÀY¥Ö - ¥~¦n¦¼¥Ìª¾
TTITLE13=Bonus Track - ¥x«È¹|(¹ªÁn­YÅT+·RªºªìÅéÅç+¦V«e¨«+¾ðªK©t³¾+¥~¦n¦¼¥Ìª¾+¹
TTITLE13=q¤õ¬W¥J)
EXTD=
EXTT0=
EXTT1=
EXTT2=
EXTT3=
EXTT4=
EXTT5=
EXTT6=
EXTT7=
EXTT8=
EXTT9=
EXTT10=
EXTT11=
EXTT12=
EXTT13=
PLAYORDER=
